/* XPM */
static char * Sun_background_xpm[] = {
"32 32 3 1",
" 	c None",
".	c #262644",
"+	c #44446B",
"..+++++.+++.+++...+++++.+++.+++.",
"++.+++.+++.+++.+++.+++.+++.+++.+",
"+++...+++.+++.+++++...+++.+++.++",
".+++.+++.+++..++.+++.+++.+++..++",
"+.+++.+.+++.+.+++.+++.+.+++.+.++",
"++.+++.+++.+++.+++.+++.+++.+++.+",
"+++.+++.+.+.+++.+++.+++.+.+.+++.",
".+++.+++.+++.+++.+++.+++.+++.+++",
"+.+++.+.+.+++.+++.+++.+.+.+++.++",
"++.+++.+++.+++.+++.+++.+++.+++.+",
"+++.+.+++.+.+++.+++.+.+++.+.+++.",
".++..+++.+++.+++.++..+++.+++.+++",
"+++.+++.+++...+++++.+++.+++...++",
"++.+++.+++.+++.+++.+++.+++.+++.+",
"..+++.+++.+++++...+++.+++.+++++.",
"..++.+++.+++.++...++.+++.+++.++.",
"..+++++.+++.+++...+++++.+++.+++.",
"++.+++.+++.+++.+++.+++.+++.+++.+",
"+++...+++.+++.+++++...+++.+++.++",
".+++.+++.+++..++.+++.+++.+++..++",
"+.+++.+.+++.+.+++.+++.+.+++.+.++",
"++.+++.+++.+++.+++.+++.+++.+++.+",
"+++.+++.+.+.+++.+++.+++.+.+.+++.",
".+++.+++.+++.+++.+++.+++.+++.+++",
"+.+++.+.+.+++.+++.+++.+.+.+++.++",
"++.+++.+++.+++.+++.+++.+++.+++.+",
"+++.+.+++.+.+++.+++.+.+++.+.+++.",
".++..+++.+++.+++.++..+++.+++.+++",
"+++.+++.+++...+++++.+++.+++...++",
"++.+++.+++.+++.+++.+++.+++.+++.+",
"..+++.+++.+++++...+++.+++.+++++.",
"..++.+++.+++.++...++.+++.+++.++."};
